<?xml version="1.0" standalone="no"?>
<!DOCTYPE svg PUBLIC "-//W3C//DTD SVG 20010904//EN"
 "http://www.w3.org/TR/2001/REC-SVG-20010904/DTD/svg10.dtd">
<svg version="1.0" xmlns="http://www.w3.org/2000/svg"
 width="1024.000000pt" height="1024.000000pt" viewBox="0 0 1024.000000 1024.000000"
 preserveAspectRatio="xMidYMid meet">
<metadata>
Created by potrace 1.14, written by Peter Selinger 2001-2017
</metadata>
<g transform="translate(0.000000,1024.000000) scale(0.100000,-0.100000)"
fill="#000000" stroke="none">
<path d="M5150 9346 c-30 -24 -121 -110 -201 -192 -144 -147 -218 -244 -260
-341 -28 -65 -59 -198 -59 -253 l0 -45 -20 30 c-36 58 -80 183 -95 275 -16
102 -26 121 -53 104 -44 -27 -196 -299 -251 -451 l-23 -61 -46 35 c-63 48
-121 72 -290 122 -145 41 -266 96 -385 171 -111 70 -121 51 -55 -100 34 -77
42 -109 46 -173 l5 -78 -54 6 c-30 4 -60 9 -68 11 -8 2 -21 -2 -30 -9 -11 -10
-57 -16 -141 -21 -69 -3 -143 -9 -165 -13 -22 -3 -37 -2 -32 2 4 5 -5 17 -20
27 -21 14 -48 18 -111 18 l-82 0 -37 -57 c-48 -75 -72 -145 -73 -211 0 -60 12
-70 56 -47 50 26 121 19 199 -19 137 -65 207 -139 288 -301 l45 -90 -67 -36
c-36 -20 -88 -50 -115 -67 -28 -18 -56 -32 -64 -32 -8 0 -71 31 -141 69 -254
140 -417 164 -575 85 -60 -30 -126 -91 -126 -116 0 -15 8 -18 48 -18 86 0 200
-71 359 -223 76 -73 266 -288 260 -294 -2 -1 -39 10 -82 24 -70 23 -96 27
-215 27 -127 0 -141 -2 -233 -33 -107 -37 -254 -116 -304 -164 -22 -21 -33
-40 -33 -59 0 -32 -3 -31 147 -78 80 -25 123 -46 197 -97 53 -36 96 -68 96
-72 0 -5 -36 -11 -80 -14 -96 -8 -240 -54 -321 -103 -121 -73 -234 -228 -289
-396 -12 -38 -24 -68 -27 -68 -17 0 -79 58 -104 98 -26 41 -58 127 -74 196 -4
21 -9 26 -17 18 -15 -15 6 -190 36 -291 47 -164 150 -296 316 -406 136 -91
331 -181 467 -215 l43 -11 -125 -143 c-141 -163 -213 -231 -270 -257 -48 -22
-106 -24 -144 -5 -31 16 -103 91 -121 127 -23 44 -42 60 -57 48 -35 -30 -2
-165 57 -232 73 -82 279 -200 410 -233 74 -19 188 -15 279 10 l54 15 -31 -32
c-59 -63 -163 -243 -206 -358 -28 -74 -19 -82 121 -105 78 -12 166 -19 259
-19 l140 1 -37 -116 c-52 -164 -90 -325 -92 -391 -2 -72 13 -93 64 -86 54 7
233 86 389 171 76 42 140 76 142 76 2 0 3 -44 4 -97 0 -158 49 -278 161 -395
l36 -36 -39 9 c-50 13 -434 24 -434 13 0 -4 12 -18 27 -30 l28 -22 -25 -27
c-35 -38 -81 -59 -190 -88 -105 -28 -170 -53 -170 -65 0 -4 5 -13 11 -19 19
-19 1 -31 -76 -48 -89 -20 -163 -11 -252 30 -83 37 -79 42 -56 -77 5 -23 1
-29 -21 -38 -23 -8 -25 -14 -20 -37 4 -16 7 -32 8 -37 0 -5 -44 -24 -99 -42
-65 -20 -100 -36 -99 -45 1 -8 3 -23 5 -34 4 -19 -1 -20 -81 -19 -70 1 -99 7
-166 33 -190 74 -378 222 -506 398 -33 46 -64 83 -69 83 -23 0 2 -154 47 -295
28 -84 88 -209 251 -520 117 -223 136 -254 218 -360 147 -189 375 -357 558
-410 54 -16 56 -17 45 -41 -6 -13 -9 -26 -6 -29 2 -3 31 -10 63 -16 79 -14
152 -43 239 -92 192 -109 339 -158 533 -177 109 -11 198 -6 351 19 51 8 52 7
36 -11 -10 -10 -14 -21 -11 -25 16 -16 210 48 272 90 24 16 20 10 -15 -27
l-45 -47 30 6 c70 15 177 78 245 143 39 37 70 65 70 62 0 -3 -12 -25 -25 -49
-14 -24 -23 -46 -21 -49 10 -9 93 48 134 92 60 65 112 148 157 252 69 158 109
202 189 211 68 8 136 -29 228 -125 157 -164 229 -302 293 -562 56 -226 92
-347 106 -355 5 -4 32 14 59 39 27 25 54 46 61 46 31 0 93 -50 139 -111 28
-38 53 -69 55 -69 2 0 -21 73 -51 163 -31 89 -72 227 -92 307 -32 127 -37 160
-37 265 0 98 4 134 23 195 33 103 99 229 176 331 101 134 191 199 276 199 89
0 149 -70 190 -225 33 -124 71 -234 82 -241 6 -4 14 -1 19 7 5 8 12 20 17 27
6 10 28 -7 83 -61 69 -69 167 -137 197 -137 10 0 7 11 -9 38 l-23 37 46 -41
c67 -58 165 -109 183 -94 9 8 15 8 20 0 13 -21 127 -72 135 -61 4 8 27 2 71
-18 61 -29 212 -61 225 -49 3 4 -2 18 -12 33 -18 27 -17 27 1 22 52 -16 205
-37 271 -37 64 0 74 2 74 18 0 15 9 17 85 13 47 -1 85 0 85 5 0 4 -9 17 -20
29 l-20 21 58 -7 c31 -4 95 -8 140 -8 72 -1 85 2 88 17 4 14 14 16 50 14 35
-3 44 -1 44 12 0 10 9 16 23 16 100 0 333 100 458 196 102 79 559 524 611 596
80 109 161 268 182 361 13 55 -20 43 -102 -35 -95 -91 -147 -127 -259 -181
-79 -38 -94 -41 -167 -42 -68 0 -90 4 -136 27 -73 36 -154 116 -255 252 -102
139 -173 216 -232 255 l-46 31 66 0 c40 0 67 4 67 10 0 12 -57 38 -178 80 -48
17 -94 33 -102 36 -12 4 -10 9 9 23 l24 19 -39 25 c-21 14 -58 31 -81 38 -49
14 -47 29 3 29 19 0 34 4 34 10 0 15 -46 35 -145 65 -49 15 -96 29 -104 31
-21 7 -6 16 36 24 l38 7 -35 16 c-43 19 -169 45 -232 48 -53 3 -54 12 -3 29
58 19 45 33 -45 45 -27 4 -70 1 -108 -8 -34 -8 -62 -14 -62 -13 0 0 10 26 21
56 14 36 23 88 27 149 l5 93 56 -6 c141 -16 335 -94 446 -179 65 -49 116 -106
165 -183 17 -27 36 -49 43 -49 40 0 60 216 34 380 -8 50 -14 91 -13 92 1 1 32
-7 69 -17 150 -42 286 -32 422 29 60 27 109 73 102 95 -2 6 -21 14 -43 17
-115 16 -212 126 -294 334 -52 132 -121 257 -172 311 l-49 52 63 6 c81 9 260
-8 365 -34 45 -12 127 -39 183 -60 169 -66 176 -60 166 130 -11 211 -47 341
-129 468 -71 109 -210 237 -378 347 -41 27 -76 50 -78 51 -1 2 35 40 81 86
182 179 275 363 322 637 9 52 21 100 27 107 18 21 87 36 152 32 74 -4 81 8 33
54 -36 35 -198 128 -223 128 -35 0 -138 66 -218 139 -49 45 -114 94 -144 109
-50 24 -67 27 -162 27 l-107 0 33 65 c106 209 316 395 539 476 33 12 62 27 64
33 8 25 -69 43 -163 39 -75 -4 -112 -12 -225 -52 -168 -59 -318 -106 -340
-106 -12 0 -17 9 -18 33 -1 19 -6 47 -13 63 -6 16 -15 86 -19 155 -10 152 -35
325 -61 428 -22 86 -73 201 -88 201 -7 0 -11 -32 -11 -85 0 -162 -38 -248
-128 -287 -46 -21 -49 -21 -147 -4 -127 21 -191 10 -252 -46 l-22 -21 -5 24
c-3 13 -7 77 -8 141 -2 67 -8 122 -14 128 -15 15 -35 5 -60 -31 l-21 -30 -7
62 c-11 94 -141 334 -209 383 -24 18 -43 21 -126 21 -91 0 -102 -2 -161 -32
-34 -18 -66 -30 -71 -27 -14 8 -39 104 -39 148 0 85 40 120 155 138 137 22
100 55 -155 138 -230 74 -280 70 -465 -43 -147 -89 -296 -191 -329 -226 -17
-17 -33 -31 -37 -31 -14 0 -138 186 -164 244 -13 30 -29 84 -35 119 -14 78 -5
120 50 226 21 40 36 80 33 87 -10 25 -47 14 -103 -30z m-86 -168 c-31 -103
-79 -183 -157 -263 -11 -12 10 32 27 56 6 8 -1 2 -16 -13 -37 -37 -36 -21 2
30 44 61 37 63 -11 3 -22 -28 -42 -51 -45 -51 -2 0 1 11 6 25 7 18 6 25 -2 25
-6 0 -3 9 7 20 10 11 22 17 28 13 6 -3 7 -1 3 6 -8 12 138 171 156 171 5 0 6
-10 2 -22z m977 -165 c28 -5 30 -7 14 -14 -11 -4 -34 -8 -52 -8 -52 -1 -136
-38 -173 -76 -41 -42 -50 -44 -46 -8 3 30 51 68 98 78 15 4 26 10 23 15 -9 15
83 24 136 13z m-1181 -37 c0 -2 -8 -10 -17 -17 -16 -13 -17 -12 -4 4 13 16 21
21 21 13z m237 -148 c-3 -8 -6 -5 -6 6 -1 11 2 17 5 13 3 -3 4 -12 1 -19z
m120 -10 c11 -18 32 -79 48 -135 16 -59 32 -100 38 -96 6 4 7 1 3 -6 -10 -16
33 -123 47 -114 6 3 7 1 3 -5 -3 -6 23 -86 59 -177 37 -91 65 -174 63 -183 -6
-28 -182 334 -223 458 -21 63 -42 116 -46 118 -4 2 -5 10 -2 18 3 8 1 14 -5
14 -6 0 -8 10 -5 23 3 15 2 18 -4 9 -6 -8 -9 9 -7 45 3 78 3 78 31 31z m-79
-90 c10 -12 10 -18 1 -24 -7 -4 -9 -3 -5 4 3 6 2 13 -4 17 -5 3 -10 11 -10 17
0 6 1 9 3 7 1 -2 8 -11 15 -21z m-648 -110 c12 -35 43 -103 67 -151 36 -73 41
-88 26 -85 -26 5 -112 181 -120 246 -3 29 -4 52 -1 52 3 0 16 -28 28 -62z
m-60 -118 c19 -87 74 -271 89 -295 3 -6 -6 3 -21 20 -55 61 -121 282 -104 350
4 15 9 26 11 23 2 -2 13 -46 25 -98z m-745 54 c58 -20 103 -40 100 -44 -6 -10
-55 0 -55 11 0 5 -8 8 -17 7 -35 -3 -54 2 -48 12 3 5 0 7 -9 4 -15 -6 -70 19
-81 36 -9 15 -5 14 110 -26z m1664 -64 c0 -8 -9 3 -19 25 -24 53 -24 70 0 25
11 -19 19 -42 19 -50z m-979 -340 c16 -63 32 -137 34 -165 2 -27 7 -63 10 -80
15 -64 -18 10 -55 125 -37 113 -37 114 -38 65 -1 -57 21 -214 45 -323 9 -41
14 -76 11 -78 -7 -7 -46 125 -68 226 -9 47 -18 78 -19 70 -7 -63 -53 297 -47
365 4 44 22 85 37 85 6 0 9 4 8 9 -2 5 6 16 17 25 20 14 20 12 27 -97 5 -72
18 -153 38 -227z m-1200 126 c41 -25 74 -50 72 -56 -1 -6 1 -9 6 -6 5 3 27
-10 48 -29 28 -24 34 -33 19 -30 -11 2 -21 4 -22 5 -2 2 -6 3 -10 4 -5 1 -42
18 -83 38 -126 61 -190 87 -203 83 -18 -7 -44 12 -32 24 35 33 114 20 205 -33z
m135 30 c86 -14 158 -34 124 -35 -19 -1 -279 38 -294 43 -25 10 89 4 170 -8z
m3205 -12 c0 -31 -42 -121 -91 -195 -54 -83 -71 -101 -43 -46 10 17 18 43 20
55 4 42 46 132 60 132 8 0 15 6 15 13 1 6 2 17 4 22 1 6 3 18 3 27 2 21 32 13
32 -8z m-2123 -46 c-2 -13 -4 -5 -4 17 -1 22 1 32 4 23 2 -10 2 -28 0 -40z
m-1329 -17 c40 -19 94 -55 120 -79 26 -24 39 -39 30 -32 -9 6 -21 9 -26 6 -5
-3 -23 4 -41 15 -18 11 -30 15 -26 9 10 -17 -11 -11 -26 7 -17 20 -99 73 -113
73 -6 0 7 -12 27 -26 54 -36 39 -41 -17 -5 -27 17 -41 31 -34 34 7 2 1 8 -14
12 -30 8 -36 20 -15 28 20 8 58 -4 135 -42z m429 33 c-3 -3 -12 -4 -19 -1 -8
3 -5 6 6 6 11 1 17 -2 13 -5z m-522 -65 c50 -23 115 -76 115 -94 0 -29 -39
-20 -142 33 -60 31 -108 58 -108 62 0 13 45 28 70 23 14 -3 43 -14 65 -24z
m1432 -11 c-3 -7 -5 -2 -5 12 0 14 2 19 5 13 2 -7 2 -19 0 -25z m81 -75 c11
-29 18 -53 14 -53 -6 0 -30 52 -48 105 -14 41 13 -1 34 -52z m268 -54 c9 -22
17 -46 17 -54 0 -8 4 -15 9 -15 5 0 6 -4 3 -10 -3 -5 25 -78 63 -162 68 -150
92 -218 75 -218 -11 1 -136 266 -178 378 -19 51 -41 102 -50 114 -8 13 -15 28
-15 36 0 24 57 -29 76 -69z m2001 29 c-3 -8 -6 -5 -6 6 -1 11 2 17 5 13 3 -3
4 -12 1 -19z m811 -78 c5 -47 6 -125 2 -175 -4 -49 -8 -73 -8 -52 -1 20 -6 37
-10 37 -4 0 -7 -39 -5 -87 1 -60 -1 -80 -7 -63 -9 27 -4 325 7 400 8 54 9 49
21 -60z m-984 28 c-4 -13 -7 -28 -7 -35 0 -7 -4 -10 -8 -7 -4 2 -3 18 3 34 12
35 23 41 12 8z m1003 -205 c-3 -10 -5 -4 -5 12 0 17 2 24 5 18 2 -7 2 -21 0
-30z m-1090 5 c-3 -8 -6 -5 -6 6 -1 11 2 17 5 13 3 -3 4 -12 1 -19z m-2240
-45 c-3 -10 -5 -4 -5 12 0 17 2 24 5 18 2 -7 2 -21 0 -30z m3340 -50 c-3 -10
-5 -4 -5 12 0 17 2 24 5 18 2 -7 2 -21 0 -30z m-5011 -82 c44 -11 116 -36 160
-56 77 -35 274 -143 284 -155 3 -4 34 -22 70 -41 54 -29 61 -34 40 -37 -30 -3
-146 38 -210 75 -30 18 -40 21 -31 10 8 -10 48 -33 90 -53 42 -19 85 -40 96
-46 11 -6 56 -13 100 -15 44 -1 89 -3 100 -4 14 0 10 -5 -15 -16 -33 -14 -112
-13 -168 3 -9 2 2 -4 24 -15 55 -26 64 -41 18 -31 -31 7 -33 6 -22 -8 7 -9 -1
-6 -18 7 -16 12 -42 23 -57 25 -15 1 -30 6 -34 9 -3 4 -11 7 -16 7 -5 0 17
-27 49 -60 63 -64 73 -80 53 -80 -16 0 -71 42 -143 110 l-59 55 80 -107 c45
-58 94 -130 109 -159 18 -33 91 -117 193 -221 90 -93 157 -166 148 -162 -10 3
-17 11 -17 17 0 6 -3 8 -6 4 -10 -10 -93 51 -173 127 -40 39 -109 118 -154
176 -109 142 -154 196 -272 325 -172 188 -246 248 -369 296 -38 14 -62 29 -55
32 30 12 128 6 205 -12z m821 -97 c-3 -3 -12 -4 -19 -1 -8 3 -5 6 6 6 11 1 17
-2 13 -5z m-830 -72 c38 -28 89 -72 115 -99 71 -73 158 -186 158 -205 0 -9 4
-19 10 -23 5 -3 19 -20 30 -38 12 -18 -5 -3 -37 33 -143 160 -248 260 -275
262 -15 1 -25 4 -22 7 6 6 -37 51 -49 51 -5 0 -3 -8 4 -17 13 -16 12 -17 -4
-4 -9 8 -15 16 -12 19 7 7 -25 42 -38 42 -5 0 -3 -8 4 -17 12 -14 10 -14 -13
1 -31 20 -36 29 -13 20 11 -5 13 -2 9 11 -14 35 61 10 133 -43z m5433 -46 c0
-2 -8 -10 -17 -17 -16 -13 -17 -12 -4 4 13 16 21 21 21 13z m-5415 -56 c10
-11 16 -20 13 -20 -3 0 -13 9 -23 20 -10 11 -16 20 -13 20 3 0 13 -9 23 -20z
m5335 -24 c0 -2 -8 -10 -17 -17 -16 -13 -17 -12 -4 4 13 16 21 21 21 13z
m-5260 -31 c7 -9 8 -15 2 -15 -5 0 -12 7 -16 15 -3 8 -4 15 -2 15 2 0 9 -7 16
-15z m401 -72 c13 -17 13 -17 -6 -3 -11 8 -22 16 -24 17 -2 2 0 3 6 3 6 0 17
-8 24 -17z m-315 -29 c-2 -6 4 -14 15 -17 10 -3 23 -16 28 -30 5 -14 14 -28
19 -31 6 -3 20 -25 32 -48 l22 -43 -36 40 c-19 22 -35 45 -36 52 0 6 -3 13 -7
15 -5 2 -24 21 -43 42 -19 22 -29 35 -21 31 11 -6 13 -4 7 10 -5 15 -4 16 9 5
9 -7 14 -19 11 -26z m4959 -204 c-3 -5 -12 -10 -18 -10 -7 0 -6 4 3 10 19 12
23 12 15 0z m-4742 -74 c7 7 127 -172 127 -189 0 -13 -3 -9 -49 51 -18 23 -30
42 -27 42 2 0 -8 14 -24 32 -16 17 -28 34 -25 36 2 3 -4 12 -13 21 -10 9 -13
13 -7 9 7 -4 15 -5 18 -2z m-693 -11 c0 -15 -112 -58 -164 -63 -56 -5 -60 -4
-47 12 8 9 15 15 17 13 2 -2 41 6 87 19 85 23 107 27 107 19z m-55 -130 l60
-25 -65 5 c-36 2 -69 4 -73 5 -5 0 -5 5 -1 12 4 6 3 8 -3 5 -6 -4 -26 -4 -44
0 -33 7 -33 7 -9 14 43 12 73 9 135 -16z m6165 -284 c-15 -118 -41 -219 -85
-328 -36 -90 -125 -232 -171 -273 -16 -14 -23 -18 -16 -8 9 11 10 18 2 23 -6
4 1 23 21 51 36 53 82 154 74 162 -3 4 -8 -4 -12 -16 -6 -26 -21 -30 -19 -4 0
9 -4 16 -11 15 -7 -2 -10 4 -6 13 5 13 8 13 15 2 8 -10 9 -10 5 2 -2 8 5 29
15 45 12 19 2 12 -28 -20 -26 -27 -40 -39 -31 -25 28 43 112 184 116 194 2 5
-14 -5 -35 -22 -83 -65 -218 -110 -280 -93 -27 7 -26 8 25 20 73 16 136 45
186 86 49 40 145 164 201 260 36 62 39 65 42 38 2 -15 -2 -70 -8 -122z m-3349
76 c-10 -9 -11 -8 -5 6 3 10 9 15 12 12 3 -3 0 -11 -7 -18z m-147 -73 c3 -8 2
-12 -4 -9 -6 3 -10 10 -10 16 0 14 7 11 14 -7z m-29 -24 l20 -25 -22 19 c-13
11 -23 24 -23 29 0 6 1 8 3 6 1 -2 11 -15 22 -29z m-2466 -34 c-2 -2 -42 -10
-89 -16 -81 -11 -139 -29 -97 -30 27 0 11 -18 -26 -30 -28 -8 -24 -9 28 -6 74
4 159 -7 205 -27 33 -15 29 -15 -90 -11 -131 4 -132 -5 -3 -26 66 -11 179 -44
203 -59 31 -20 2 -19 -79 5 -46 13 -93 24 -105 23 -11 0 2 -7 30 -14 28 -8 75
-25 105 -40 l54 -26 -65 6 c-36 4 -105 13 -155 22 -49 8 -154 16 -231 16
l-142 2 37 32 c20 18 33 33 29 33 -4 0 -30 -21 -59 -46 -28 -25 -54 -43 -57
-40 -3 4 5 24 17 46 12 22 19 40 14 40 -4 0 12 19 37 41 55 51 114 79 200 95
61 11 248 19 239 10z m2795 -45 c4 -5 -3 -7 -14 -4 -23 6 -26 13 -6 13 8 0 17
-4 20 -9z m-299 -21 c4 -6 -1 -7 -11 -3 -13 5 -15 3 -9 -7 5 -9 4 -11 -4 -6
-6 4 -9 12 -6 17 8 12 22 12 30 -1z m519 -2 c-3 -4 -9 -8 -15 -8 -5 0 -9 4 -9
8 0 5 7 9 15 9 8 0 12 -4 9 -9z m-734 -20 c0 -6 -6 -5 -15 2 -8 7 -15 14 -15
16 0 2 7 1 15 -2 8 -4 15 -11 15 -16z m511 -1 c-10 -9 -11 -8 -5 6 3 10 9 15
12 12 3 -3 0 -11 -7 -18z m-533 -22 c-3 -3 -9 2 -12 12 -6 14 -5 15 5 6 7 -7
10 -15 7 -18z m357 15 c-3 -5 -12 -10 -18 -10 -7 0 -6 4 3 10 19 12 23 12 15
0z m-435 -4 c0 -2 -7 -7 -16 -10 -8 -3 -12 -2 -9 4 6 10 25 14 25 6z m829 -30
c8 -10 9 -16 1 -21 -5 -3 -10 0 -10 9 0 8 -6 17 -12 19 -8 4 -9 6 -2 6 6 1 17
-5 23 -13z m143 -38 c-8 -8 -9 -4 -5 13 4 13 8 18 11 10 2 -7 -1 -18 -6 -23z
m88 -6 c0 -4 -9 -8 -19 -8 -11 0 -17 4 -15 8 3 4 12 8 20 8 8 0 14 -4 14 -8z
m12 -34 c-8 -8 -9 -4 -5 13 4 13 8 18 11 10 2 -7 -1 -18 -6 -23z m-1154 -23
c-3 -3 -9 2 -12 12 -6 14 -5 15 5 6 7 -7 10 -15 7 -18z m-1918 -7 c0 -6 -6 -5
-15 2 -8 7 -15 14 -15 16 0 2 7 1 15 -2 8 -4 15 -11 15 -16z m1788 -3 c-3 -3
-9 2 -12 12 -6 14 -5 15 5 6 7 -7 10 -15 7 -18z m109 -11 c-3 -3 -12 -4 -19
-1 -8 3 -5 6 6 6 11 1 17 -2 13 -5z m-50 -20 c-3 -3 -12 -4 -19 -1 -8 3 -5 6
6 6 11 1 17 -2 13 -5z m-2231 -55 c88 -27 324 -153 311 -166 -6 -6 -95 31
-188 77 -44 23 -83 39 -86 36 -3 -2 8 -11 24 -19 15 -9 42 -30 58 -48 17 -18
21 -27 11 -19 -11 8 5 -16 35 -53 30 -38 70 -92 90 -120 32 -46 34 -52 21 -68
-14 -17 -21 -12 -101 63 -95 90 -217 175 -302 209 -42 17 -73 22 -141 21 -84
0 -87 0 -77 19 12 24 76 65 120 78 59 16 153 12 225 -10z m3634 -209 c0 -5 -7
-7 -15 -4 -8 4 -15 8 -15 10 0 2 7 4 15 4 8 0 15 -4 15 -10z m-1570 -234 c0
-2 -9 -6 -20 -9 -11 -3 -18 -1 -14 4 5 9 34 13 34 5z m27 -21 c0 -8 -4 -12 -9
-9 -5 3 -6 10 -3 15 9 13 12 11 12 -6z m1498 -24 c3 -5 2 -12 -3 -15 -5 -3 -9
1 -9 9 0 17 3 19 12 6z m185 -55 c0 -2 -8 -10 -17 -17 -16 -13 -17 -12 -4 4
13 16 21 21 21 13z m2180 -47 c73 -50 131 -112 169 -182 34 -64 38 -75 18 -58
-8 6 -16 8 -19 5 -3 -3 -5 3 -4 13 0 9 -5 18 -13 18 -8 0 -15 9 -17 19 -4 25
-94 117 -107 109 -6 -3 -7 -1 -4 4 9 14 -19 37 -33 28 -6 -4 -9 -1 -8 7 2 7
-4 12 -12 10 -8 -2 -12 0 -7 4 4 4 -7 23 -25 41 -41 43 -16 36 62 -18z m-2302
6 c-3 -3 -9 2 -12 12 -6 14 -5 15 5 6 7 -7 10 -15 7 -18z m-1468 -59 c0 -2 -9
-6 -20 -9 -11 -3 -18 -1 -14 4 5 9 34 13 34 5z m1425 -17 c-4 -5 -1 -9 5 -9 6
0 8 -5 5 -11 -9 -13 -15 -7 -20 20 -2 12 0 19 6 16 5 -4 7 -11 4 -16z m2470 1
c10 -11 16 -20 13 -20 -3 0 -13 9 -23 20 -10 11 -16 20 -13 20 3 0 13 -9 23
-20z m-2492 -23 c4 3 7 4 7 0 0 -17 -20 -14 -36 6 -19 22 -19 22 2 4 11 -9 24
-14 27 -10z m-1306 -79 c-3 -8 -6 -5 -6 6 -1 11 2 17 5 13 3 -3 4 -12 1 -19z
m3914 -15 c13 -16 12 -17 -3 -4 -10 7 -18 15 -18 17 0 8 8 3 21 -13z m-5827
-57 c-66 -35 -154 -96 -139 -96 5 0 18 8 29 18 20 17 20 17 4 -8 -10 -16 -25
-25 -41 -25 -15 -1 -29 -3 -32 -6 -3 -3 13 -5 34 -5 22 0 37 4 34 9 -3 5 4 11
16 14 11 3 19 9 16 13 -3 4 15 14 40 21 25 7 45 17 45 22 0 5 7 6 16 3 8 -3
12 -2 9 4 -3 6 0 10 7 11 28 2 55 7 93 17 22 6 85 13 140 16 98 6 99 6 45 -7
-30 -7 -93 -32 -140 -55 -47 -23 -76 -39 -65 -36 11 4 34 8 50 10 28 4 29 3 5
-5 -39 -14 -134 -57 -263 -121 -65 -32 -126 -56 -135 -53 -10 2 -41 -5 -70
-16 -65 -26 -68 -12 -4 25 75 44 134 96 123 107 -7 7 -26 -2 -58 -29 -27 -22
-68 -55 -93 -74 -42 -31 -43 -32 -20 -6 58 66 249 219 314 251 88 45 121 45
40 1z m3013 -22 c-3 -3 -12 -4 -19 -1 -8 3 -5 6 6 6 11 1 17 -2 13 -5z m-2367
-14 c0 -5 -21 -10 -46 -10 -30 0 -43 -4 -38 -11 4 -6 -1 -10 -12 -8 -11 1 -26
-1 -34 -4 -8 -3 -39 -13 -69 -23 -73 -23 -186 -77 -146 -69 55 10 341 16 320
6 -19 -8 -18 -9 5 -13 14 -2 -9 -7 -50 -11 -85 -9 -119 -27 -50 -27 63 0 240
-28 255 -40 6 -5 15 -6 19 -2 4 4 7 3 6 -3 -5 -22 1 -25 21 -14 14 7 19 7 15
0 -8 -12 37 -26 53 -16 6 3 11 1 11 -6 0 -8 -12 -10 -42 -5 -80 14 -333 25
-483 21 -170 -4 -261 -16 -372 -50 -42 -13 -79 -22 -82 -20 -9 9 72 95 131
141 102 76 254 138 407 164 69 11 181 12 181 0z m-910 -14 c0 -2 -8 -10 -17
-17 -16 -13 -17 -12 -4 4 13 16 21 21 21 13z m3054 -12 c3 -8 2 -12 -4 -9 -6
3 -10 10 -10 16 0 14 7 11 14 -7z m256 -15 c0 -5 -4 -9 -8 -9 -5 0 -9 7 -9 15
0 8 4 12 9 9 4 -3 8 -9 8 -15z m-105 1 c3 -6 -1 -7 -10 -4 -8 4 -22 1 -30 -6
-9 -8 -15 -8 -15 -2 0 19 45 29 55 12z m2212 4 c-3 -3 -12 -4 -19 -1 -8 3 -5
6 6 6 11 1 17 -2 13 -5z m684 -26 c17 -24 18 -29 6 -19 -18 14 -42 51 -33 51
3 0 15 -15 27 -32z m-3555 -16 c-15 -15 -15 -15 -4 10 7 15 15 23 17 17 2 -6
-4 -18 -13 -27z m534 16 c0 -4 -4 -8 -9 -8 -6 0 -12 4 -15 8 -3 5 1 9 9 9 8 0
15 -4 15 -9z m-349 -15 c12 -16 12 -17 -1 -7 -8 6 -22 14 -30 17 -13 5 -12 6
1 6 9 1 23 -7 30 -16z m464 -3 c-3 -5 -11 -10 -16 -10 -6 0 -7 5 -4 10 3 6 11
10 16 10 6 0 7 -4 4 -10z m-501 -16 c3 -8 2 -12 -4 -9 -6 3 -10 10 -10 16 0
14 7 11 14 -7z m183 -16 c-3 -8 -6 -5 -6 6 -1 11 2 17 5 13 3 -3 4 -12 1 -19z
m274 5 c13 -16 12 -17 -3 -4 -10 7 -18 15 -18 17 0 8 8 3 21 -13z m-506 -12
c-9 -8 -36 -10 -30 -2 2 4 11 8 20 8 8 0 13 -3 10 -6z m273 -21 c-7 -10 -14
-17 -17 -15 -4 4 18 35 25 35 2 0 -1 -9 -8 -20z m42 0 c6 -11 7 -20 2 -20 -6
0 -12 9 -15 20 -3 11 -3 20 -1 20 2 0 8 -9 14 -20z m-420 -1 c0 -6 -7 -8 -16
-5 -13 5 -15 2 -11 -15 4 -16 3 -19 -5 -11 -6 6 -8 18 -5 26 7 18 37 22 37 5z
m2617 -35 c-3 -3 -12 -4 -19 -1 -8 3 -5 6 6 6 11 1 17 -2 13 -5z m-5257 -84
c0 -5 -5 -10 -11 -10 -5 0 -7 5 -4 10 3 6 8 10 11 10 2 0 4 -4 4 -10z m1315 0
c13 -6 15 -9 5 -9 -8 0 -22 4 -30 9 -18 12 -2 12 25 0z m-608 -115 c59 -15
115 -33 123 -41 20 -20 4 -19 -90 6 -104 27 -122 24 -25 -5 119 -35 162 -55
144 -66 -8 -5 -23 -9 -34 -9 -16 0 -17 2 -6 9 10 6 2 9 -25 8 -21 -1 -86 5
-144 12 -136 18 -294 9 -425 -23 -55 -14 -109 -28 -120 -32 -34 -13 33 43 91
76 29 17 85 39 126 50 40 10 64 20 53 20 -51 4 37 17 127 19 76 1 121 -4 205
-24z m5430 -20 c41 -14 95 -39 119 -56 41 -28 71 -65 61 -75 -3 -3 -33 7 -68
22 -94 40 -248 91 -299 99 -53 9 -62 13 -55 26 4 5 42 9 86 9 60 0 100 -7 156
-25z m-977 -131 c0 -3 -20 9 -45 26 -25 17 -45 33 -45 36 0 3 20 -9 45 -26 25
-17 45 -33 45 -36z m-4273 30 c-3 -3 -12 -4 -19 -1 -8 3 -5 6 6 6 11 1 17 -2
13 -5z m4042 -61 c99 -53 193 -121 186 -133 -3 -5 -1 -11 4 -15 6 -3 20 -20
32 -38 l22 -32 -39 36 c-21 20 -93 73 -160 118 -174 116 -195 146 -45 64z
m-36 -62 c55 -41 137 -86 150 -83 4 1 6 -1 5 -6 -2 -4 0 -7 3 -7 16 0 47 -38
42 -51 -3 -8 2 -25 10 -38 17 -26 11 -42 -9 -25 -8 7 -14 7 -19 -1 -3 -5 -15
-10 -27 -10 -17 0 -18 -3 -8 -15 7 -8 16 -13 20 -10 4 3 10 -8 13 -23 3 -15 9
-35 12 -44 5 -13 -2 -23 -27 -38 -28 -17 -27 -25 3 -22 3 1 6 -5 6 -12 0 -7
-10 -12 -21 -11 -12 1 -28 3 -36 4 -13 1 -13 2 0 11 13 8 13 10 -2 10 -9 0
-19 -4 -22 -8 -3 -5 -19 -7 -36 -4 -24 3 -29 1 -24 -11 4 -12 1 -14 -15 -10
-12 3 -29 -1 -39 -8 -15 -13 -16 -12 -4 3 16 19 8 25 -73 52 -27 9 -63 27 -79
41 l-29 23 70 -13 c73 -14 133 -19 193 -16 32 2 30 4 -30 22 -91 29 -93 37 -9
31 68 -5 72 -4 64 14 -4 10 -10 27 -12 37 -3 9 -9 17 -13 17 -10 0 -56 130
-51 145 1 6 0 7 -4 4 -6 -7 -105 92 -105 104 0 13 51 -13 103 -52z m-4029
-279 c-104 -101 -209 -225 -304 -359 -26 -37 -40 -30 -19 9 46 86 174 264 234
323 57 57 183 146 205 145 3 0 -50 -53 -116 -118z m-489 -52 c3 -6 -4 -10 -17
-10 -18 0 -20 -2 -8 -10 10 -7 -10 -10 -67 -10 -45 0 -84 4 -88 9 -5 9 27 16
115 24 19 2 40 5 47 5 6 1 15 -2 18 -8z m-288 -26 c-3 -3 -12 -4 -19 -1 -8 3
-5 6 6 6 11 1 17 -2 13 -5z m4753 -51 c13 -15 13 -15 0 -6 -8 6 -31 16 -50 22
l-35 11 35 -5 c19 -3 42 -13 50 -22z m1066 -101 c45 -16 86 -32 93 -36 18 -11
3 -26 -26 -26 -28 0 -183 79 -183 94 0 9 2 9 116 -32z m-4658 -64 c-3 -7 -55
-31 -117 -55 -96 -36 -303 -137 -336 -164 -17 -13 -95 -23 -95 -12 0 14 39 48
90 78 25 14 35 23 23 20 -13 -3 -23 -2 -23 3 0 14 25 22 40 12 14 -9 162 49
154 61 -2 4 1 11 7 15 8 4 9 3 5 -4 -9 -15 -7 -15 45 4 57 21 169 52 192 53
10 1 17 -4 15 -11z m-464 -42 c-3 -8 -12 -17 -20 -20 -7 -3 -11 -12 -8 -21 4
-8 1 -15 -6 -15 -6 0 -30 -15 -53 -34 -23 -18 -55 -42 -71 -52 -29 -18 -29
-18 -18 1 15 28 71 81 128 120 58 40 55 39 48 21z m4311 -47 c102 -35 153 -65
184 -107 20 -29 18 -29 -137 34 -86 35 -176 66 -200 70 -44 7 -58 17 -46 35
10 17 94 3 199 -32z m-4181 12 c3 -5 -5 -8 -18 -7 -13 0 -22 4 -19 9 6 10 31
9 37 -2z m3386 -55 c33 -44 140 -271 140 -297 0 -6 -112 -29 -118 -24 -1 1
-12 62 -22 135 -11 73 -26 157 -34 187 -8 29 -12 53 -10 53 2 0 22 -24 44 -54z
m-3430 29 c0 -2 -9 -3 -19 -2 -11 0 -18 5 -15 9 4 6 34 0 34 -7z m1026 -122
c-9 -70 -21 -191 -26 -267 -11 -145 -26 -226 -42 -226 -5 0 -6 -6 -2 -12 5
-10 3 -10 -7 0 -22 20 -25 311 -4 414 14 70 82 234 93 223 2 -2 -3 -61 -12
-132z m3041 121 c-3 -3 -12 -4 -19 -1 -8 3 -5 6 6 6 11 1 17 -2 13 -5z m-3967
-39 c0 -2 -13 -11 -30 -20 -38 -19 -40 -11 -2 9 31 17 32 18 32 11z m1145
-152 c-10 -80 -57 -212 -94 -267 -18 -25 -33 -46 -35 -46 -7 0 15 112 34 172
29 94 77 198 91 198 8 0 9 -16 4 -57z m849 -141 c70 -175 71 -181 52 -188 -52
-20 -140 82 -160 186 -7 34 -6 33 21 -15 47 -82 56 -93 80 -104 20 -9 22 -8
13 7 -26 45 -69 187 -74 244 -4 46 -3 55 3 35 5 -16 34 -90 65 -165z m-810 26
c-7 -95 -23 -165 -44 -190 -18 -22 -18 -21 0 51 11 40 22 98 26 129 5 53 10
72 19 72 2 0 1 -28 -1 -62z m-203 -60 l-11 -33 5 34 c3 18 6 52 7 75 l1 41 4
-42 c2 -22 -1 -56 -6 -75z m2086 80 c-3 -7 -5 -2 -5 12 0 14 2 19 5 13 2 -7 2
-19 0 -25z m-958 -161 c6 -22 7 -45 4 -51 -7 -10 -63 158 -62 184 1 22 48 -84
58 -133z m1567 66 c-2 -32 -4 -63 -5 -68 -1 -12 -60 -49 -66 -43 -2 2 3 17 12
33 45 82 53 101 53 117 0 10 2 18 4 18 3 0 3 -26 2 -57z m-2396 25 c0 -49 -20
-142 -32 -149 -12 -7 -38 -104 -39 -141 0 -10 -5 -20 -10 -23 -5 -4 -7 -11 -3
-16 12 -19 -22 -3 -43 21 -28 30 -27 24 -4 84 11 29 27 53 39 57 11 4 23 12
27 18 3 6 11 9 16 6 5 -4 9 -2 9 4 0 22 -22 21 -40 -1 -11 -13 -19 -17 -20
-10 0 6 5 12 10 12 6 0 9 3 9 8 -4 25 2 32 20 22 18 -9 20 -4 32 60 12 67 29
95 29 48z m1874 -35 c9 -26 16 -57 16 -70 0 -13 4 -22 9 -19 4 3 6 -5 4 -18
-3 -13 5 -57 16 -98 12 -41 21 -78 21 -84 -1 -10 -32 64 -55 131 l-14 40 4
-53 c2 -38 0 -50 -8 -45 -7 3 -3 -4 8 -17 11 -13 14 -20 6 -15 -10 6 -12 2 -6
-16 14 -46 32 -85 46 -99 28 -29 89 -107 89 -114 0 -3 -18 3 -41 14 -75 39
-179 165 -218 268 -12 28 -19 52 -16 52 2 0 20 -24 40 -52 44 -67 45 -56 0 30
-36 71 -48 122 -29 129 8 2 15 -15 19 -46 4 -27 12 -57 19 -67 10 -14 11 -6 5
44 -3 34 -3 76 1 94 7 29 8 25 9 -25 1 -76 17 -65 26 18 9 79 26 85 49 18z
m-2421 -100 c4 -75 5 -138 3 -140 -2 -2 -37 14 -77 36 -41 23 -78 41 -83 41
-5 0 -6 -16 -3 -35 3 -19 4 -35 1 -35 -10 0 -83 40 -88 48 -9 14 31 86 65 119
37 35 146 103 164 103 8 0 14 -44 18 -137z m2500 -13 l6 -75 -14 49 c-14 49
-19 98 -15 146 3 39 17 -30 23 -120z m-2239 42 c-4 -37 -9 -58 -12 -47 -2 11
-8 24 -13 30 -5 5 -8 20 -8 35 1 24 2 23 9 -5 6 -27 8 -25 15 25 11 76 19 44
9 -38z m1973 -82 c59 -136 113 -218 207 -309 42 -40 74 -76 71 -79 -9 -9 -87
31 -136 70 -57 44 -146 177 -183 271 -25 65 -30 96 -26 177 l2 35 10 -30 c6
-16 31 -77 55 -135z m40 128 c-3 -8 -6 -5 -6 6 -1 11 2 17 5 13 3 -3 4 -12 1
-19z m-1902 -85 c-14 -40 -11 -58 7 -47 6 4 5 -2 -2 -15 -17 -32 -33 -15 -25
27 6 35 22 72 29 72 2 0 -2 -17 -9 -37z m871 -65 l29 -33 -32 29 c-31 28 -38
36 -30 36 2 0 16 -15 33 -32z m-909 -90 c-3 -7 -5 -2 -5 12 0 14 2 19 5 13 2
-7 2 -19 0 -25z m82 -45 c-15 -18 -20 -16 -12 4 4 11 3 14 -5 9 -8 -5 -12 1
-12 15 0 21 1 22 20 4 15 -14 17 -21 9 -32z m540 -349 c1 -328 8 -537 27 -879
l6 -110 -53 60 c-29 33 -94 102 -144 153 l-90 93 0 122 c-1 145 -16 210 -83
347 -25 52 -47 97 -49 100 -1 3 47 64 108 135 61 72 148 178 192 237 45 60 83
108 84 108 0 0 2 -165 2 -366z m835 264 c-13 -34 -29 -67 -34 -72 -14 -14 -12
-28 3 -21 6 4 -17 -21 -53 -54 -35 -33 -69 -57 -74 -54 -5 3 -6 2 -3 -4 4 -5
-24 -33 -61 -62 -37 -29 -49 -36 -27 -16 27 24 41 46 43 68 4 38 18 57 41 57
13 0 13 2 2 9 -11 7 -10 14 8 40 26 36 37 41 20 9 -9 -18 -9 -21 1 -11 7 6 13
22 14 35 1 13 7 22 14 21 11 -3 16 10 13 30 -1 5 3 6 8 3 5 -3 25 14 46 39 54
66 69 60 39 -17z m-505 -83 c43 -86 39 -109 -16 -113 l-43 -3 0 102 c0 118 7
120 59 14z m-932 -17 c-2 -13 -4 -3 -4 22 0 25 2 35 4 23 2 -13 2 -33 0 -45z
m323 -91 c0 -2 -12 -14 -27 -28 l-28 -24 24 28 c23 25 31 32 31 24z m880 -11
c0 -2 -8 -10 -17 -17 -16 -13 -17 -12 -4 4 13 16 21 21 21 13z m-930 -49 c0
-2 -12 -14 -27 -28 l-28 -24 24 28 c23 25 31 32 31 24z m985 -122 c-8 -48 -15
-124 -15 -169 l0 -81 -81 -90 c-76 -84 -183 -221 -239 -307 l-25 -38 -7 68
c-3 37 -9 166 -12 287 -4 121 -9 249 -12 284 l-5 64 51 -44 c77 -65 87 -71
110 -64 11 4 71 46 132 95 62 49 114 88 116 86 1 -2 -4 -43 -13 -91z m-125 41
c0 -2 -8 -10 -17 -17 -16 -13 -17 -12 -4 4 13 16 21 21 21 13z m-413 -693 c-2
-21 -4 -4 -4 37 0 41 2 58 4 38 2 -21 2 -55 0 -75z m10 -195 c-2 -18 -4 -6 -4
27 0 33 2 48 4 33 2 -15 2 -42 0 -60z m10 -165 c-2 -21 -4 -6 -4 32 0 39 2 55
4 38 2 -18 2 -50 0 -70z m16 -118 c3 -43 2 -60 -3 -45 -8 24 -14 127 -6 119 2
-2 6 -35 9 -74z"/>
<path d="M4273 8125 c0 -22 2 -30 4 -17 2 12 2 30 0 40 -3 9 -5 -1 -4 -23z"/>
<path d="M4281 8034 c0 -11 3 -14 6 -6 3 7 2 16 -1 19 -3 4 -6 -2 -5 -13z"/>
<path d="M7531 7844 c0 -11 3 -14 6 -6 3 7 2 16 -1 19 -3 4 -6 -2 -5 -13z"/>
<path d="M8211 6184 c0 -11 3 -14 6 -6 3 7 2 16 -1 19 -3 4 -6 -2 -5 -13z"/>
<path d="M2288 6303 c7 -3 16 -2 19 1 4 3 -2 6 -13 5 -11 0 -14 -3 -6 -6z"/>
<path d="M2043 6293 c15 -2 37 -2 50 0 12 2 0 4 -28 4 -27 0 -38 -2 -22 -4z"/>
<path d="M1985 6280 c-3 -5 -2 -10 4 -10 5 0 13 5 16 10 3 6 2 10 -4 10 -5 0
-13 -4 -16 -10z"/>
<path d="M2788 4893 c6 -2 18 -2 25 0 6 3 1 5 -13 5 -14 0 -19 -2 -12 -5z"/>
<path d="M5609 3073 l-24 -28 28 24 c15 14 27 26 27 28 0 8 -8 1 -31 -24z"/>
</g>
</svg>
